#!OML:ASF H:\Male1\Project 1\Capture day 1\Session 1\Male1.ASF
:FULLY-SPECIFIED
:DEGREES
683
root 16.5707 15.481 -0.881743 -14.1095 -96.6496 11.2474
lowerback 5.19128 2.49131 -0.0349063
upperback 2.67703 3.24393 -1.26079
thorax -0.0836696 1.60306 -1.43894
lowerneck -8.23804 1.18392 6.33196
upperneck 2.31771 1.06303 -3.28377
head 2.25087 0.493689 -2.13264
rclavicle -2.27111e-014 -7.95139e-016
rhumerus -32.2408 6.1925 -94.6479
rradius 21.8201
rwrist -14.1724
rhand -14.1119 2.36249
rfingers 7.12502
rthumb 12.0212 -27.2723
lclavicle -2.27111e-014 -7.95139e-016
lhumerus -32.219 -11.4529 89.9215
lradius 29.9708
lwrist -0.964038
lhand -21.8297 7.52843
lfingers 7.12502
lthumb 4.57318 37.4591
rfemur 0.536923 18.1031 23.2439
rtibia 18.4474
rfoot -31.4215 -32.5302
rtoes -14.1267
lfemur 1.20767 -19.3686 -20.0367
ltibia 21.231
lfoot -27.8949 30.7196
ltoes 3.33964
684
root 16.5704 15.4795 -0.879162 -13.5225 -96.8214 10.632
lowerback 5.12513 2.517 -0.0992787
upperback 2.75182 3.27478 -1.25646
thorax 0.0268165 1.61758 -1.3948
lowerneck -8.4294 1.21584 6.19382
upperneck 2.38183 1.10291 -3.17601
head 2.30602 0.514439 -2.07089
rclavicle -4.34841e-014 7.15625e-015
rhumerus -32.0959 6.28279 -94.5824
rradius 21.8207
rwrist -13.9655
rhand -14.0192 2.53343
rfingers 7.12502
rthumb 12.1106 -27.0961
lclavicle -4.34841e-014 7.15625e-015
lhumerus -31.9878 -11.615 89.9523
lradius 29.8978
lwrist -0.751087
lhand -21.831 7.57199
lfingers 7.12502
lthumb 4.57192 37.5027
rfemur 0.514476 18.1403 23.1817
rtibia 18.4978
rfoot -31.4181 -32.3484
rtoes -13.9933
lfemur 1.31029 -19.2887 -20.1137
ltibia 21.1804
lfoot -27.9228 30.799
ltoes 3.34377
685
root 16.5713 15.4794 -0.876725 -12.3055 -96.8665 9.41543
lowerback 5.08208 2.49819 -0.282418
upperback 2.77748 3.24127 -1.27582
thorax 0.0671856 1.59866 -1.3082
lowerneck -8.47444 1.28576 6.13154
upperneck 2.3613 1.19555 -3.09913
head 2.31009 0.561431 -2.02944
rclavicle -6.65929e-015 -4.77083e-015
rhumerus -32.0456 6.55093 -94.6041
rradius 21.8389
rwrist -13.8914
rhand -14.0333 2.67411
rfingers 7.12502
rthumb 12.097 -26.9562
lclavicle -6.65929e-015 -4.77083e-015
lhumerus -31.8268 -11.6223 89.9466
lradius 29.7806
lwrist -0.634908
lhand -21.9726 7.38334
lfingers 7.12502
lthumb 4.4352 37.3169
rfemur 0.414831 18.118 23.006
rtibia 18.6357
rfoot -31.5506 -32.1933
rtoes -13.6939
lfemur 1.38329 -19.3048 -20.2848
ltibia 21.0594
lfoot -27.9074 30.8896
ltoes 3.48697
686
root 16.5735 15.4809 -0.874221 -10.9385 -96.8857 8.06557
lowerback 5.07695 2.48549 -0.462571
upperback 2.75952 3.21578 -1.31719
thorax 0.0434774 1.58399 -1.24925
lowerneck -8.38669 1.33956 6.14589
upperneck 2.27194 1.26985 -3.09335
head 2.26793 0.598144 -2.02553
rclavicle -1.09332e-015 -7.95139e-015
rhumerus -32.0723 6.88416 -94.711
rradius 21.8288
rwrist -13.8543
rhand -14.3303 2.98935
rfingers 7.12502
rthumb 11.8106 -26.6576
lclavicle -1.09332e-015 -7.95139e-015
lhumerus -31.6666 -11.4639 89.8945
lradius 29.5723
lwrist -0.741642
lhand -22.0808 6.9643
lfingers 7.12502
lthumb 4.33076 36.9
rfemur 0.286853 18.0582 22.8018
rtibia 18.7779
rfoot -31.4929 -32.1979
rtoes -13.9947
lfemur 1.41704 -19.4125 -20.4817
ltibia 20.9358
lfoot -27.9273 31.0411
ltoes 3.5764
687
root 16.5769 15.481 -0.872309 -10.0667 -96.916 7.19551
lowerback 5.08104 2.48368 -0.569475
upperback 2.75707 3.20774 -1.35238
thorax 0.0346793 1.57876 -1.22562
lowerneck -8.25899 1.34393 6.19453
upperneck 2.16238 1.28032 -3.15536
head 2.21017 0.601536 -2.05325
rclavicle 9.39258e-015 8.74653e-015
rhumerus -32.0401 6.99471 -94.7437
rradius 21.7469
rwrist -13.1683
rhand -14.7354 3.45123
rfingers 7.12502
rthumb 11.4199 -26.2178
lclavicle 9.39258e-015 8.74653e-015
lhumerus -31.4531 -11.3388 89.8522
lradius 29.2701
lwrist -0.790046
lhand -22.2042 6.68089
lfingers 7.12502
lthumb 4.21156 36.619
rfemur 0.194524 18.0195 22.669
rtibia 18.8955
rfoot -31.4152 -32.1684
rtoes -14.4225
lfemur 1.45434 -19.4646 -20.6037
ltibia 20.8285
lfoot -27.9644 31.112
ltoes 3.70152
688
root 16.5788 15.4791 -0.871335 -10.1511 -96.9675 7.25072
lowerback 5.13738 2.47749 -0.604943
upperback 2.72145 3.19738 -1.33116
thorax -0.0366023 1.57323 -1.18732
lowerneck -8.02212 1.32812 6.22148
upperneck 2.02188 1.274 -3.23853
head 2.12139 0.596378 -2.08417
rclavicle 3.32467e-014 -9.54166e-015
rhumerus -32.0215 6.87785 -94.6256
rradius 21.6045
rwrist -11.4344
rhand -15.0128 3.6958
rfingers 7.12502
rthumb 11.1524 -25.9878
lclavicle 3.32467e-014 -9.54166e-015
lhumerus -31.4029 -11.1482 89.8367
lradius 29.0332
lwrist -0.839604
lhand -21.0934 7.39984
lfingers 7.12502
lthumb 5.28416 37.314
rfemur 0.143143 18.0638 22.6849
rtibia 19.0305
rfoot -31.5075 -32.0436
rtoes -14.4152
lfemur 1.56349 -19.476 -20.6134
ltibia 20.6968
lfoot -27.9886 31.1384
ltoes 3.8162
689
root 16.5789 15.4803 -0.870453 -9.97453 -97.0013 7.09723
lowerback 5.142 2.46016 -0.672339
upperback 2.66925 3.17194 -1.31853
thorax -0.0976321 1.56023 -1.13725
lowerneck -7.85916 1.32139 6.2236
upperneck 1.90977 1.277 -3.30886
head 2.05573 0.595845 -2.10638
rclavicle -2.22142e-014 9.54166e-015
rhumerus -32.0477 7.07859 -94.6889
rradius 21.4644
rwrist -10.1217
rhand -15.3863 4.08446
rfingers 7.12502
rthumb 10.7921 -25.6183
lclavicle -2.22142e-014 9.54166e-015
lhumerus -31.3872 -10.7591 89.7462
lradius 28.8676
lwrist -1.13102
lhand -17.5595 8.54736
lfingers 7.12502
lthumb 8.69545 38.3483
rfemur 0.0306851 18.0755 22.6524
rtibia 19.17
rfoot -31.4998 -32.0269
rtoes -14.7252
lfemur 1.6178 -19.4863 -20.6377
ltibia 20.5686
lfoot -27.9542 31.1907
ltoes 3.94224
690
root 16.5787 15.4831 -0.86859 -8.15859 -96.9509 5.36896
lowerback 5.05414 2.43692 -0.881607
upperback 2.63742 3.1323 -1.39933
thorax -0.0887415 1.53886 -1.0982
lowerneck -7.90403 1.32153 6.23658
upperneck 1.93459 1.2741 -3.32682
head 2.07252 0.593979 -2.11526
rclavicle 2.43014e-014 -1.03368e-014
rhumerus -32.0454 7.21236 -94.8329
rradius 21.3319
rwrist -9.275
rhand -15.6611 4.81899
rfingers 7.12502
rthumb 10.527 -24.8974
lclavicle 2.43014e-014 -1.03368e-014
lhumerus -31.2894 -10.3918 89.6222
lradius 28.6634
lwrist -1.39248
lhand -17.7762 9.05392
lfingers 7.12502
lthumb 8.48627 38.8634
rfemur -0.134257 17.9755 22.3538
rtibia 19.2577
rfoot -31.4005 -32.0526
rtoes -15.1114
lfemur 1.54891 -19.464 -20.843
ltibia 20.4822
lfoot -27.8307 31.2131
ltoes 3.98503
691
root 16.5791 15.4818 -0.863729 -6.8253 -96.9234 4.00448
lowerback 5.0922 2.4178 -0.984188
upperback 2.6361 3.09956 -1.47543
thorax -0.112834 1.52137 -1.11915
lowerneck -7.9336 1.33391 6.21718
upperneck 1.97923 1.2891 -3.2763
head 2.09237 0.603014 -2.09465
rclavicle -1.23743e-014 1.59028e-014
rhumerus -32.0432 7.03539 -94.8476
rradius 21.2256
rwrist -8.29067
rhand -15.7846 5.47031
rfingers 7.12502
rthumb 10.408 -24.2521
lclavicle -1.23743e-014 1.59028e-014
lhumerus -31.1541 -10.0912 89.5423
lradius 28.3212
lwrist -1.42784
lhand -18.0426 8.01836
lfingers 7.12502
lthumb 8.22925 37.8381
rfemur -0.1392 17.8583 22.1291
rtibia 19.2855
rfoot -31.364 -31.9336
rtoes -14.8667
lfemur 1.60423 -19.5197 -21.0751
ltibia 20.4436
lfoot -27.8464 31.2576
ltoes 4.02294
692
root 16.5821 15.4825 -0.85962 -7.12088 -96.9593 4.31623
lowerback 5.12721 2.40545 -0.915697
upperback 2.61157 3.08576 -1.47078
thorax -0.154317 1.5154 -1.15411
lowerneck -7.90054 1.35284 6.20874
upperneck 1.98996 1.31755 -3.27401
head 2.09119 0.617644 -2.09106
rclavicle -3.62782e-015 1.98785e-014
rhumerus -32.0738 7.0548 -94.8972
rradius 21.1854
rwrist -7.87946
rhand -15.9387 5.81418
rfingers 7.12502
rthumb 10.2593 -23.9156
lclavicle -3.62782e-015 1.98785e-014
lhumerus -30.9984 -9.69964 89.4664
lradius 27.9749
lwrist -1.6037
lhand -19.9456 7.11099
lfingers 7.12502
lthumb 6.39233 36.9945
rfemur -0.187652 17.7595 22.1271
rtibia 19.2881
rfoot -31.2395 -31.8051
rtoes -14.6842
lfemur 1.57839 -19.4988 -21.0369
ltibia 20.4389
lfoot -27.8542 31.263
ltoes 3.99922
